<svg width="16" height="16" viewBox="0 0 16 16" fill="none" xmlns="http://www.w3.org/2000/svg">
<path fill-rule="evenodd" clip-rule="evenodd" d="M8.7071 2.62627C8.31658 2.23574 7.68341 2.23574 7.29289 2.62627C6.90236 3.01679 6.90236 3.64996 7.29289 4.04048L10.2524 7.00004H3.33333C2.78104 7.00004 2.33333 7.44776 2.33333 8.00004C2.33333 8.55233 2.78104 9.00004 3.33333 9.00004H10.2524L7.29289 11.9596C6.90236 12.3501 6.90236 12.9833 7.29289 13.3738C7.68341 13.7643 8.31658 13.7643 8.7071 13.3738L13.3734 8.70748L13.3738 8.70715M13.5908 7.61726C13.542 7.49931 13.4696 7.38881 13.3738 7.29293L8.7071 2.62627M13.3759 8.70502C13.5556 8.52423 13.6667 8.2751 13.6667 8.00004C13.6667 7.86445 13.6397 7.73516 13.5908 7.61726" fill="#2278D4"/>
</svg>
