<svg width="64" height="64" viewBox="0 0 64 64" fill="none" xmlns="http://www.w3.org/2000/svg">
<rect opacity="0.2" width="64" height="64" rx="26" fill="#22A75D"/>
<rect x="4" y="4" width="56" height="56" rx="24" fill="#22A75D"/>
<g clip-path="url(#clip0)">
<path d="M40.9717 25.8049C40.6672 25.6781 40.3318 25.6448 40.0083 25.7092C39.6847 25.7736 39.3877 25.9328 39.155 26.1666L37 28.3216L33.1783 24.4999C32.8658 24.1875 32.4419 24.012 32 24.012C31.5581 24.012 31.1342 24.1875 30.8217 24.4999L27 28.3216L24.845 26.1666C24.6119 25.9336 24.315 25.7749 23.9917 25.7106C23.6685 25.6464 23.3334 25.6794 23.0289 25.8055C22.7244 25.9316 22.4641 26.1452 22.281 26.4192C22.0979 26.6932 22.0001 27.0154 22 27.3449V36.1666C22.0013 37.2713 22.4407 38.3303 23.2218 39.1114C24.003 39.8925 25.062 40.332 26.1667 40.3333H37.8333C38.938 40.332 39.997 39.8925 40.7782 39.1114C41.5593 38.3303 41.9987 37.2713 42 36.1666V27.3449C42.0001 27.0153 41.9024 26.6931 41.7194 26.419C41.5364 26.1449 41.2761 25.9312 40.9717 25.8049Z" fill="white"/>
</g>
<defs>
<clipPath id="clip0">
<rect width="20" height="20" fill="white" transform="translate(22 22)"/>
</clipPath>
</defs>
</svg>
