<svg width="20" height="20" viewBox="0 0 20 20" fill="none" xmlns="http://www.w3.org/2000/svg">
<g clip-path="url(#clip0)">
<path d="M9.99999 0.416992C4.47499 0.416992 -7.62939e-06 4.81699 -7.62939e-06 10.2437C-7.62939e-06 14.5862 2.86499 18.2687 6.83749 19.567C7.33749 19.6595 7.52083 19.3553 7.52083 19.0945C7.52083 18.8612 7.51249 18.2428 7.50833 17.4237C4.72666 18.0162 4.13999 16.1053 4.13999 16.1053C3.68499 14.9712 3.02749 14.6678 3.02749 14.6678C2.12166 14.0587 3.09749 14.0712 3.09749 14.0712C4.10166 14.1395 4.62916 15.0837 4.62916 15.0837C5.52083 16.5862 6.96999 16.152 7.54166 15.9012C7.63166 15.2653 7.88916 14.8328 8.17499 14.587C5.95416 14.3412 3.61999 13.4962 3.61999 9.73116C3.61999 8.65866 4.00749 7.78199 4.64916 7.09449C4.53666 6.84616 4.19916 5.84699 4.73666 4.49366C4.73666 4.49366 5.57416 4.23033 7.48666 5.50116C8.28666 5.28283 9.13666 5.17449 9.98666 5.16949C10.8367 5.17449 11.6867 5.28283 12.4867 5.50116C14.3867 4.23033 15.2242 4.49366 15.2242 4.49366C15.7617 5.84699 15.4242 6.84616 15.3242 7.09449C15.9617 7.78199 16.3492 8.65866 16.3492 9.73116C16.3492 13.5062 14.0117 14.337 11.7867 14.5787C12.1367 14.8737 12.4617 15.4762 12.4617 16.397C12.4617 17.712 12.4492 18.7687 12.4492 19.0878C12.4492 19.3453 12.6242 19.6528 13.1367 19.5545C17.1375 18.2645 20 14.5795 20 10.2437C20 4.81699 15.5225 0.416992 9.99999 0.416992Z" fill="white"/>
</g>
<defs>
<clipPath id="clip0">
<rect width="20" height="20" fill="white"/>
</clipPath>
</defs>
</svg>
