<svg width="272" height="85" viewBox="0 0 272 85" fill="none" xmlns="http://www.w3.org/2000/svg">
<path d="M269.112 26.0521C270.397 31.1591 268.067 36.5329 262.555 41.9138C257.04 47.2974 248.387 52.6355 237.203 57.6187C214.837 67.5829 182.532 76.0458 145.589 80.6108C108.647 85.1758 74.1597 84.9657 48.2794 80.9631C35.3372 78.9611 24.6008 76.0185 16.7907 72.2813C8.98472 68.5463 4.17346 64.0551 2.88807 58.9479C1.60269 53.8408 3.93259 48.467 9.44544 43.0862C14.9604 37.7025 23.6131 32.3644 34.7976 27.3812C57.1625 17.4169 89.4686 8.95392 126.41 4.38916C163.353 -0.175604 197.841 0.0341067 223.72 4.03711C236.662 6.03898 247.399 8.98134 255.209 12.7184C263.015 16.4536 267.827 20.9449 269.112 26.0521Z" stroke="#22A75D" stroke-width="2"/>
<path d="M271 44.117C271 49.3161 267.379 54.3384 260.625 58.9798C253.869 63.6238 244.036 67.8391 231.801 71.3959C207.337 78.5065 173.466 82.9222 136 82.9222C98.5338 82.9222 64.6635 78.5065 40.1992 71.3959C27.9634 67.8391 18.1314 63.6238 11.3741 58.9798C4.62092 54.3384 1 49.3161 1 44.117C1 38.918 4.62092 33.8957 11.3741 29.2543C18.1314 24.6106 27.9634 20.3948 40.1992 16.8384C64.6635 9.72722 98.5338 5.31177 136 5.31177C173.466 5.31177 207.337 9.72722 231.801 16.8384C244.036 20.3948 253.869 24.6106 260.625 29.2543C267.379 33.8957 271 38.918 271 44.117Z" stroke="#22A75D" stroke-width="2"/>
</svg>
