<svg width="64" height="64" viewBox="0 0 64 64" fill="none" xmlns="http://www.w3.org/2000/svg">
<rect opacity="0.2" width="64" height="64" rx="26" fill="#2278D4"/>
<rect x="4" y="4" width="56" height="56" rx="24" fill="#2278D4"/>
<path d="M23.1057 32.3334L26.0723 34.5001L24.9457 37.9892C24.7636 38.5304 24.7613 39.1159 24.9391 39.6585C25.1169 40.201 25.4653 40.6716 25.9323 41.0001C26.3914 41.3391 26.9477 41.5206 27.5183 41.5178C28.0889 41.5149 28.6434 41.3278 29.099 40.9842L31.9998 38.8492L34.9015 40.9817C35.3597 41.3188 35.913 41.5018 36.4818 41.5046C37.0506 41.5074 37.6057 41.3297 38.0671 40.9972C38.5286 40.6646 38.8727 40.1943 39.0501 39.6538C39.2274 39.1133 39.2288 38.5305 39.054 37.9892L37.9273 34.5001L40.894 32.3334C41.3516 31.9988 41.6918 31.5282 41.866 30.9887C42.0401 30.4493 42.0393 29.8686 41.8637 29.3296C41.6881 28.7906 41.3467 28.3208 40.8882 27.9875C40.4297 27.6541 39.8775 27.4742 39.3107 27.4734H35.6665L34.5607 24.0267C34.3868 23.4842 34.0451 23.0109 33.5848 22.6751C33.1246 22.3393 32.5696 22.1584 31.9998 22.1584C31.4301 22.1584 30.8751 22.3393 30.4149 22.6751C29.9546 23.0109 29.6129 23.4842 29.439 24.0267L28.3332 27.4734H24.6923C24.1255 27.4742 23.5733 27.6541 23.1148 27.9875C22.6563 28.3208 22.3149 28.7906 22.1393 29.3296C21.9637 29.8686 21.9629 30.4493 22.137 30.9887C22.3112 31.5282 22.6514 31.9988 23.109 32.3334H23.1057Z" fill="white"/>
</svg>
