<svg width="20" height="20" viewBox="0 0 20 20" fill="none" xmlns="http://www.w3.org/2000/svg">
<path d="M14.1667 1.6665H5.83333C3.53214 1.6665 1.66666 3.53198 1.66666 5.83317V14.1665C1.66666 16.4677 3.53214 18.3332 5.83333 18.3332H14.1667C16.4679 18.3332 18.3333 16.4677 18.3333 14.1665V5.83317C18.3333 3.53198 16.4679 1.6665 14.1667 1.6665Z" stroke="white" stroke-width="2" stroke-linecap="round" stroke-linejoin="round"/>
<path d="M13.3333 9.47525C13.4362 10.1688 13.3177 10.8771 12.9948 11.4994C12.6719 12.1218 12.161 12.6264 11.5347 12.9416C10.9084 13.2569 10.1987 13.3666 9.50649 13.2552C8.81428 13.1438 8.17481 12.817 7.67904 12.3212C7.18327 11.8254 6.85645 11.186 6.74506 10.4938C6.63368 9.80154 6.74339 9.09183 7.05861 8.46556C7.37383 7.8393 7.87849 7.32837 8.50083 7.00545C9.12316 6.68254 9.83147 6.56407 10.525 6.66692C11.2324 6.77182 11.8874 7.10147 12.3931 7.60717C12.8988 8.11288 13.2284 8.76782 13.3333 9.47525Z" stroke="white" stroke-width="2" stroke-linecap="round" stroke-linejoin="round"/>
<path d="M14.5833 5.4165H14.5917" stroke="white" stroke-width="2" stroke-linecap="round" stroke-linejoin="round"/>
</svg>
