<svg width="58" height="34" viewBox="0 0 58 34" fill="none" xmlns="http://www.w3.org/2000/svg">
<path d="M0 15.2388L7.03238 33.9998H22.6931L14.2097 12.4346L0 15.2388Z" fill="url(#paint0_linear)"/>
<path d="M25.954 33.9266L17.261 11.789L25.6597 9.70738L35.0214 7.40479L44.013 33.9222L25.954 33.9266Z" fill="url(#paint1_linear)"/>
<path d="M17.2546 11.7894L7.03259 33.9999H22.6933L35.0462 7.41406L17.2546 11.7894Z" fill="#FFD100"/>
<path d="M38.9334 6.03933L25.9541 33.9268H44.0065L57.9999 0L38.9334 6.03933Z" fill="#E20613"/>
<path d="M35.0302 7.44472L35.0235 7.42041L17.2542 11.7891L24.4761 30.1613L35.0302 7.44472Z" fill="url(#paint2_linear)"/>
<path d="M7.03259 33.9999H22.6933L15.4759 15.6543L7.03259 33.9999Z" fill="url(#paint3_linear)"/>
<path d="M25.9541 33.9265H44.0087L36.399 11.4751L25.9541 33.9265Z" fill="url(#paint4_linear)"/>
<defs>
<linearGradient id="paint0_linear" x1="11.3454" y1="33.9998" x2="11.3454" y2="12.4368" gradientUnits="userSpaceOnUse">
<stop stop-color="#2B3087"/>
<stop offset="0.82" stop-color="#00B4EC"/>
</linearGradient>
<linearGradient id="paint1_linear" x1="30.6303" y1="33.9266" x2="30.6303" y2="7.40479" gradientUnits="userSpaceOnUse">
<stop stop-color="#2B3087"/>
<stop offset="1" stop-color="#00B4EC"/>
</linearGradient>
<linearGradient id="paint2_linear" x1="26.1433" y1="30.1613" x2="26.1433" y2="7.42041" gradientUnits="userSpaceOnUse">
<stop stop-color="#009540"/>
<stop offset="1" stop-color="#26A960"/>
</linearGradient>
<linearGradient id="paint3_linear" x1="14.8629" y1="15.6543" x2="14.8629" y2="33.9999" gradientUnits="userSpaceOnUse">
<stop stop-color="#3FAE6C"/>
<stop offset="1" stop-color="#006633"/>
</linearGradient>
<linearGradient id="paint4_linear" x1="25.9541" y1="22.703" x2="44.0087" y2="22.703" gradientUnits="userSpaceOnUse">
<stop stop-color="#164194"/>
<stop offset="1" stop-color="#005CA9"/>
</linearGradient>
</defs>
</svg>
