<svg width="20" height="20" viewBox="0 0 20 20" fill="none" xmlns="http://www.w3.org/2000/svg">
<g clip-path="url(#clip0)">
<path d="M18.4042 3.94384L20 2.41717V2.08301H14.4717L10.5317 11.8897L6.04916 2.08301H0.252492V2.41717L2.11666 4.66134C2.29833 4.82717 2.39333 5.06967 2.36916 5.31384V14.133C2.42666 14.4505 2.32333 14.7772 2.09999 15.008L-7.62939e-06 17.553V17.883H5.95416V17.5488L3.85416 15.008C3.62666 14.7763 3.51916 14.4555 3.56499 14.133V6.50467L8.79166 17.8872H9.39916L13.8933 6.50467V15.5722C13.8933 15.8113 13.8933 15.8605 13.7367 16.0172L12.12 17.5813V17.9163H19.9633V17.5822L18.405 16.0563C18.2683 15.953 18.1975 15.7797 18.2267 15.6113V4.38884C18.1975 4.21967 18.2675 4.04634 18.4042 3.94384Z" fill="white"/>
</g>
<defs>
<clipPath id="clip0">
<rect width="20" height="20" fill="white"/>
</clipPath>
</defs>
</svg>
