<svg width="117" height="72" viewBox="0 0 117 72" fill="none" xmlns="http://www.w3.org/2000/svg">
<circle r="6" transform="matrix(-1 0 0 1 82.0001 31)" fill="#E20613"/>
<rect opacity="0.2" x="0.00012207" width="64" height="64" rx="26" fill="#E20613"/>
<rect x="4.00012" y="4" width="56" height="56" rx="24" fill="#E20613"/>
<path d="M31.9572 38.6904L34.7072 42.2461H31.1407L29.7443 40.4521C28.5913 41.0824 27.3058 41.3975 25.8878 41.3975C23.5174 41.3975 21.548 40.5811 19.9796 38.9482C18.4113 37.3083 17.6271 35.3568 17.6271 33.0938C17.6271 31.5827 17.9923 30.1969 18.7228 28.9365C19.4532 27.6689 20.4559 26.6628 21.7306 25.918C23.0125 25.1732 24.3875 24.8008 25.8556 24.8008C28.0971 24.8008 30.02 25.61 31.6241 27.2285C33.2355 28.847 34.0411 30.82 34.0411 33.1475C34.0411 35.2887 33.3465 37.1364 31.9572 38.6904ZM30.0773 36.2627C30.7146 35.3174 31.0333 34.2718 31.0333 33.126C31.0333 31.6292 30.5284 30.3581 29.5187 29.3125C28.5089 28.2669 27.2879 27.7441 25.8556 27.7441C24.3803 27.7441 23.145 28.2526 22.1495 29.2695C21.1541 30.2865 20.6564 31.5791 20.6564 33.1475C20.6564 34.8949 21.283 36.277 22.5363 37.2939C23.5174 38.0889 24.631 38.4863 25.8771 38.4863C26.5932 38.4863 27.2664 38.3467 27.8966 38.0674L25.0714 34.4258H28.6593L30.0773 36.2627ZM42.3556 24.8008H45.3634V34.9736H46.7706V37.7559H45.3634V41H42.42V37.7559H35.5236V34.9736L42.3556 24.8008ZM42.42 34.9736V29.6777L38.8107 34.9736H42.42Z" fill="white"/>
<path d="M79.4581 55.2373H77.0587C77.1232 53.8428 77.5597 52.7471 78.3683 51.9502C79.1827 51.1475 80.2257 50.7461 81.4972 50.7461C82.2823 50.7461 82.9738 50.9131 83.5714 51.2471C84.1749 51.5752 84.6554 52.0527 85.0128 52.6797C85.3761 53.3008 85.5577 53.9336 85.5577 54.5781C85.5577 55.3457 85.338 56.1719 84.8986 57.0566C84.465 57.9414 83.6681 58.9873 82.5079 60.1943L81.0577 61.7236H85.6632V64H76.7072V62.8223L80.7062 58.7441C81.673 57.7656 82.3146 56.9805 82.631 56.3887C82.9532 55.791 83.1144 55.252 83.1144 54.7715C83.1144 54.2734 82.9474 53.8633 82.6134 53.541C82.2853 53.2129 81.8605 53.0488 81.339 53.0488C80.8116 53.0488 80.3722 53.2451 80.0206 53.6377C79.6691 54.0303 79.4816 54.5635 79.4581 55.2373ZM91.4113 50.7461C92.3546 50.7461 93.1661 50.9775 93.8458 51.4404C94.5314 51.9033 95.0587 52.6123 95.4279 53.5674C95.8029 54.5166 95.9904 55.8408 95.9904 57.54C95.9904 59.2568 95.7999 60.5928 95.4191 61.5479C95.0441 62.5029 94.5372 63.2061 93.8986 63.6572C93.2599 64.1025 92.4542 64.3252 91.4816 64.3252C90.5089 64.3252 89.6915 64.0996 89.0294 63.6484C88.3673 63.1973 87.8488 62.5117 87.4738 61.5918C87.0988 60.6719 86.9113 59.3623 86.9113 57.6631C86.9113 55.29 87.2775 53.5703 88.0099 52.5039C88.8243 51.332 89.9581 50.7461 91.4113 50.7461ZM91.4728 53.084C91.0568 53.084 90.6876 53.2188 90.3654 53.4883C90.0431 53.752 89.797 54.209 89.6271 54.8594C89.4572 55.5098 89.3722 56.4619 89.3722 57.7158C89.3722 59.3506 89.5656 60.4814 89.9523 61.1084C90.3448 61.7295 90.8517 62.04 91.4728 62.04C92.0704 62.04 92.545 61.7441 92.8966 61.1523C93.3243 60.4375 93.5382 59.2422 93.5382 57.5664C93.5382 55.8672 93.3448 54.6953 92.9581 54.0508C92.5773 53.4062 92.0822 53.084 91.4728 53.084ZM99.6378 55.2373H97.2384C97.3029 53.8428 97.7394 52.7471 98.548 51.9502C99.3624 51.1475 100.405 50.7461 101.677 50.7461C102.462 50.7461 103.153 50.9131 103.751 51.2471C104.355 51.5752 104.835 52.0527 105.193 52.6797C105.556 53.3008 105.737 53.9336 105.737 54.5781C105.737 55.3457 105.518 56.1719 105.078 57.0566C104.645 57.9414 103.848 58.9873 102.688 60.1943L101.237 61.7236H105.843V64H96.8868V62.8223L100.886 58.7441C101.853 57.7656 102.494 56.9805 102.811 56.3887C103.133 55.791 103.294 55.252 103.294 54.7715C103.294 54.2734 103.127 53.8633 102.793 53.541C102.465 53.2129 102.04 53.0488 101.519 53.0488C100.991 53.0488 100.552 53.2451 100.2 53.6377C99.8488 54.0303 99.6613 54.5635 99.6378 55.2373ZM109.552 51.0713H113.234V64H110.791V53.3828H108.128L109.552 51.0713Z" fill="#0F1320"/>
</svg>
