<svg width="117" height="72" viewBox="0 0 117 72" fill="none" xmlns="http://www.w3.org/2000/svg">
<circle r="6" transform="matrix(-1 0 0 1 82.0002 31)" fill="#FFD100"/>
<rect opacity="0.2" x="0.000244141" width="64" height="64" rx="26" fill="#FFD100"/>
<rect x="4.00024" y="4" width="56" height="56" rx="24" fill="#FFD100"/>
<path d="M31.9573 38.6904L34.7073 42.2461H31.1409L29.7444 40.4521C28.5914 41.0824 27.3059 41.3975 25.8879 41.3975C23.5175 41.3975 21.5481 40.5811 19.9797 38.9482C18.4114 37.3083 17.6272 35.3568 17.6272 33.0938C17.6272 31.5827 17.9924 30.1969 18.7229 28.9365C19.4534 27.6689 20.456 26.6628 21.7307 25.918C23.0126 25.1732 24.3876 24.8008 25.8557 24.8008C28.0972 24.8008 30.0201 25.61 31.6243 27.2285C33.2356 28.847 34.0413 30.82 34.0413 33.1475C34.0413 35.2887 33.3466 37.1364 31.9573 38.6904ZM30.0774 36.2627C30.7148 35.3174 31.0334 34.2718 31.0334 33.126C31.0334 31.6292 30.5286 30.3581 29.5188 29.3125C28.509 28.2669 27.288 27.7441 25.8557 27.7441C24.3805 27.7441 23.1451 28.2526 22.1497 29.2695C21.1542 30.2865 20.6565 31.5791 20.6565 33.1475C20.6565 34.8949 21.2831 36.277 22.5364 37.2939C23.5175 38.0889 24.6311 38.4863 25.8772 38.4863C26.5933 38.4863 27.2665 38.3467 27.8967 38.0674L25.0715 34.4258H28.6594L30.0774 36.2627ZM39.2512 29.0977H36.3616C36.512 27.9303 36.9309 26.9922 37.6184 26.2832C38.578 25.2949 39.7847 24.8008 41.2385 24.8008C42.5347 24.8008 43.6197 25.2126 44.4934 26.0361C45.3743 26.8597 45.8147 27.8372 45.8147 28.9688C45.8147 29.6706 45.6213 30.3115 45.2346 30.8916C44.8551 31.4717 44.3 31.9408 43.5696 32.2988C44.5292 32.5853 45.2776 33.0866 45.8147 33.8027C46.359 34.5117 46.6311 35.3496 46.6311 36.3164C46.6311 37.7344 46.1083 38.9375 45.0627 39.9258C44.0172 40.9069 42.6851 41.3975 41.0667 41.3975C39.5341 41.3975 38.2844 40.9355 37.3176 40.0117C36.3508 39.0807 35.8209 37.8167 35.7278 36.2197H38.7034C38.8323 37.0361 39.1152 37.6449 39.552 38.0459C39.996 38.4398 40.5546 38.6367 41.2278 38.6367C41.9296 38.6367 42.5097 38.4111 42.968 37.96C43.4335 37.5088 43.6663 36.9574 43.6663 36.3057C43.6663 35.5895 43.3547 34.9844 42.7317 34.4902C42.1086 33.9961 41.2099 33.7419 40.0354 33.7275V31.1494C40.7587 31.0921 41.2958 30.9811 41.6467 30.8164C42.0048 30.6445 42.2805 30.4118 42.4739 30.1182C42.6744 29.8245 42.7747 29.513 42.7747 29.1836C42.7747 28.7539 42.6243 28.3994 42.3235 28.1201C42.0227 27.8337 41.6288 27.6904 41.1418 27.6904C40.7122 27.6904 40.3219 27.8229 39.9709 28.0879C39.62 28.3457 39.3801 28.6823 39.2512 29.0977Z" fill="white"/>
<path d="M79.4583 55.2373H77.0588C77.1233 53.8428 77.5598 52.7471 78.3684 51.9502C79.1829 51.1475 80.2258 50.7461 81.4973 50.7461C82.2825 50.7461 82.9739 50.9131 83.5715 51.2471C84.175 51.5752 84.6555 52.0527 85.0129 52.6797C85.3762 53.3008 85.5579 53.9336 85.5579 54.5781C85.5579 55.3457 85.3381 56.1719 84.8987 57.0566C84.4651 57.9414 83.6682 58.9873 82.5081 60.1943L81.0579 61.7236H85.6633V64H76.7073V62.8223L80.7063 58.7441C81.6731 57.7656 82.3147 56.9805 82.6311 56.3887C82.9534 55.791 83.1145 55.252 83.1145 54.7715C83.1145 54.2734 82.9475 53.8633 82.6135 53.541C82.2854 53.2129 81.8606 53.0488 81.3391 53.0488C80.8118 53.0488 80.3723 53.2451 80.0208 53.6377C79.6692 54.0303 79.4817 54.5635 79.4583 55.2373ZM91.4114 50.7461C92.3547 50.7461 93.1663 50.9775 93.8459 51.4404C94.5315 51.9033 95.0588 52.6123 95.428 53.5674C95.803 54.5166 95.9905 55.8408 95.9905 57.54C95.9905 59.2568 95.8 60.5928 95.4192 61.5479C95.0442 62.5029 94.5374 63.2061 93.8987 63.6572C93.26 64.1025 92.4543 64.3252 91.4817 64.3252C90.509 64.3252 89.6917 64.0996 89.0295 63.6484C88.3674 63.1973 87.8489 62.5117 87.4739 61.5918C87.0989 60.6719 86.9114 59.3623 86.9114 57.6631C86.9114 55.29 87.2776 53.5703 88.01 52.5039C88.8245 51.332 89.9583 50.7461 91.4114 50.7461ZM91.4729 53.084C91.0569 53.084 90.6877 53.2188 90.3655 53.4883C90.0432 53.752 89.7971 54.209 89.6272 54.8594C89.4573 55.5098 89.3723 56.4619 89.3723 57.7158C89.3723 59.3506 89.5657 60.4814 89.9524 61.1084C90.345 61.7295 90.8518 62.04 91.4729 62.04C92.0706 62.04 92.5452 61.7441 92.8967 61.1523C93.3245 60.4375 93.5383 59.2422 93.5383 57.5664C93.5383 55.8672 93.345 54.6953 92.9583 54.0508C92.5774 53.4062 92.0823 53.084 91.4729 53.084ZM99.6379 55.2373H97.2385C97.303 53.8428 97.7395 52.7471 98.5481 51.9502C99.3625 51.1475 100.406 50.7461 101.677 50.7461C102.462 50.7461 103.154 50.9131 103.751 51.2471C104.355 51.5752 104.835 52.0527 105.193 52.6797C105.556 53.3008 105.738 53.9336 105.738 54.5781C105.738 55.3457 105.518 56.1719 105.078 57.0566C104.645 57.9414 103.848 58.9873 102.688 60.1943L101.238 61.7236H105.843V64H96.887V62.8223L100.886 58.7441C101.853 57.7656 102.494 56.9805 102.811 56.3887C103.133 55.791 103.294 55.252 103.294 54.7715C103.294 54.2734 103.127 53.8633 102.793 53.541C102.465 53.2129 102.04 53.0488 101.519 53.0488C100.991 53.0488 100.552 53.2451 100.2 53.6377C99.8489 54.0303 99.6614 54.5635 99.6379 55.2373ZM109.552 51.0713H113.235V64H110.791V53.3828H108.128L109.552 51.0713Z" fill="#0F1320"/>
</svg>
