<svg width="117" height="72" viewBox="0 0 117 72" fill="none" xmlns="http://www.w3.org/2000/svg">
<circle r="6" transform="matrix(-1 0 0 1 82 31)" fill="#2278D4"/>
<rect opacity="0.2" width="64" height="64" rx="26" fill="#2278D4"/>
<rect x="4" y="4" width="56" height="56" rx="24" fill="#2278D4"/>
<path d="M31.957 38.6904L34.707 42.2461H31.1406L29.7441 40.4521C28.5911 41.0824 27.3057 41.3975 25.8877 41.3975C23.5173 41.3975 21.5479 40.5811 19.9795 38.9482C18.4111 37.3083 17.627 35.3568 17.627 33.0938C17.627 31.5827 17.9922 30.1969 18.7227 28.9365C19.4531 27.6689 20.4557 26.6628 21.7305 25.918C23.0124 25.1732 24.3874 24.8008 25.8555 24.8008C28.097 24.8008 30.0199 25.61 31.624 27.2285C33.2354 28.847 34.041 30.82 34.041 33.1475C34.041 35.2887 33.3464 37.1364 31.957 38.6904ZM30.0771 36.2627C30.7145 35.3174 31.0332 34.2718 31.0332 33.126C31.0332 31.6292 30.5283 30.3581 29.5186 29.3125C28.5088 28.2669 27.2878 27.7441 25.8555 27.7441C24.3802 27.7441 23.1449 28.2526 22.1494 29.2695C21.154 30.2865 20.6562 31.5791 20.6562 33.1475C20.6562 34.8949 21.2829 36.277 22.5361 37.2939C23.5173 38.0889 24.6309 38.4863 25.877 38.4863C26.5931 38.4863 27.2663 38.3467 27.8965 38.0674L25.0713 34.4258H28.6592L30.0771 36.2627ZM38.9072 30.29H35.9746C36.0534 28.5856 36.5869 27.2464 37.5752 26.2725C38.5706 25.2913 39.8454 24.8008 41.3994 24.8008C42.359 24.8008 43.2041 25.0049 43.9346 25.4131C44.6722 25.8141 45.2594 26.3978 45.6963 27.1641C46.1403 27.9232 46.3623 28.6966 46.3623 29.4844C46.3623 30.4225 46.0938 31.4323 45.5566 32.5137C45.0267 33.5951 44.0527 34.8734 42.6348 36.3486L40.8623 38.2178H46.4912V41H35.5449V39.5605L40.4326 34.5762C41.6143 33.3802 42.3984 32.4206 42.7852 31.6973C43.179 30.9668 43.376 30.3079 43.376 29.7207C43.376 29.112 43.1719 28.6107 42.7637 28.2168C42.3626 27.8158 41.8434 27.6152 41.2061 27.6152C40.5615 27.6152 40.0244 27.8551 39.5947 28.335C39.165 28.8148 38.9359 29.4665 38.9072 30.29Z" fill="white"/>
<path d="M79.458 55.2373H77.0586C77.123 53.8428 77.5596 52.7471 78.3682 51.9502C79.1826 51.1475 80.2256 50.7461 81.4971 50.7461C82.2822 50.7461 82.9736 50.9131 83.5713 51.2471C84.1748 51.5752 84.6553 52.0527 85.0127 52.6797C85.376 53.3008 85.5576 53.9336 85.5576 54.5781C85.5576 55.3457 85.3379 56.1719 84.8984 57.0566C84.4648 57.9414 83.668 58.9873 82.5078 60.1943L81.0576 61.7236H85.6631V64H76.707V62.8223L80.7061 58.7441C81.6729 57.7656 82.3145 56.9805 82.6309 56.3887C82.9531 55.791 83.1143 55.252 83.1143 54.7715C83.1143 54.2734 82.9473 53.8633 82.6133 53.541C82.2852 53.2129 81.8604 53.0488 81.3389 53.0488C80.8115 53.0488 80.3721 53.2451 80.0205 53.6377C79.6689 54.0303 79.4814 54.5635 79.458 55.2373ZM91.4111 50.7461C92.3545 50.7461 93.166 50.9775 93.8457 51.4404C94.5312 51.9033 95.0586 52.6123 95.4277 53.5674C95.8027 54.5166 95.9902 55.8408 95.9902 57.54C95.9902 59.2568 95.7998 60.5928 95.4189 61.5479C95.0439 62.5029 94.5371 63.2061 93.8984 63.6572C93.2598 64.1025 92.4541 64.3252 91.4814 64.3252C90.5088 64.3252 89.6914 64.0996 89.0293 63.6484C88.3672 63.1973 87.8486 62.5117 87.4736 61.5918C87.0986 60.6719 86.9111 59.3623 86.9111 57.6631C86.9111 55.29 87.2773 53.5703 88.0098 52.5039C88.8242 51.332 89.958 50.7461 91.4111 50.7461ZM91.4727 53.084C91.0566 53.084 90.6875 53.2188 90.3652 53.4883C90.043 53.752 89.7969 54.209 89.627 54.8594C89.457 55.5098 89.3721 56.4619 89.3721 57.7158C89.3721 59.3506 89.5654 60.4814 89.9521 61.1084C90.3447 61.7295 90.8516 62.04 91.4727 62.04C92.0703 62.04 92.5449 61.7441 92.8965 61.1523C93.3242 60.4375 93.5381 59.2422 93.5381 57.5664C93.5381 55.8672 93.3447 54.6953 92.958 54.0508C92.5771 53.4062 92.082 53.084 91.4727 53.084ZM99.6377 55.2373H97.2383C97.3027 53.8428 97.7393 52.7471 98.5479 51.9502C99.3623 51.1475 100.405 50.7461 101.677 50.7461C102.462 50.7461 103.153 50.9131 103.751 51.2471C104.354 51.5752 104.835 52.0527 105.192 52.6797C105.556 53.3008 105.737 53.9336 105.737 54.5781C105.737 55.3457 105.518 56.1719 105.078 57.0566C104.645 57.9414 103.848 58.9873 102.688 60.1943L101.237 61.7236H105.843V64H96.8867V62.8223L100.886 58.7441C101.853 57.7656 102.494 56.9805 102.811 56.3887C103.133 55.791 103.294 55.252 103.294 54.7715C103.294 54.2734 103.127 53.8633 102.793 53.541C102.465 53.2129 102.04 53.0488 101.519 53.0488C100.991 53.0488 100.552 53.2451 100.2 53.6377C99.8486 54.0303 99.6611 54.5635 99.6377 55.2373ZM109.552 51.0713H113.234V64H110.791V53.3828H108.128L109.552 51.0713Z" fill="#0F1320"/>
</svg>
