<svg width="20" height="20" viewBox="0 0 20 20" fill="none" xmlns="http://www.w3.org/2000/svg">
<path d="M19.1667 2.50008C18.3686 3.06298 17.4851 3.4935 16.55 3.77508C16.0481 3.198 15.3811 2.78899 14.6392 2.60335C13.8973 2.41771 13.1162 2.46441 12.4017 2.73712C11.6872 3.00984 11.0737 3.49541 10.6441 4.12818C10.2146 4.76094 9.98974 5.51036 9.99999 6.27508V7.10841C8.53552 7.14639 7.08439 6.82159 5.77584 6.16295C4.46728 5.50431 3.34193 4.53228 2.49999 3.33341C2.49999 3.33341 -0.833338 10.8334 6.66666 14.1667C4.95043 15.3317 2.90596 15.9159 0.833328 15.8334C8.33333 20.0001 17.5 15.8334 17.5 6.25008C17.4992 6.01796 17.4769 5.78641 17.4333 5.55841C18.2838 4.71966 18.884 3.66067 19.1667 2.50008Z" fill="white"/>
</svg>
